# Blender v3.2.0 OBJ File: ''
# www.blender.org
mtllib Door.mtl
o Cube
v 1.000000 0.000000 0.240000
v 0.800000 0.000000 0.300000
v -1.000000 0.000000 0.240000
v -0.800000 0.000000 0.300000
v 1.000000 1.000000 0.240000
v 0.800000 0.800000 0.300000
v 0.800000 -0.800000 0.300000
v 1.000000 -1.000000 0.240000
v -0.800000 0.800000 0.300000
v -1.000000 1.000000 0.240000
v -0.800000 -0.800000 0.300000
v -1.000000 -1.000000 0.240000
v 0.800000 0.800000 -0.300000
v 1.000000 1.000000 -0.240000
v 0.800000 -0.800000 -0.300000
v 1.000000 -1.000000 -0.240000
v -1.000000 1.000000 -0.240000
v -0.800000 0.800000 -0.300000
v -1.000000 -1.000000 -0.240000
v -0.800000 -0.800000 -0.300000
v 1.000000 0.000000 -0.240000
v 0.800000 0.000000 -0.300000
v -0.800000 0.000000 -0.300000
v -1.000000 0.000000 -0.240000
v 0.000000 1.000000 0.240000
v 0.000000 0.800000 0.300000
v 0.000000 -1.000000 0.240000
v 0.000000 -0.800000 0.300000
v 0.000000 -1.000000 -0.240000
v 0.000000 -0.800000 -0.300000
v 0.000000 1.000000 -0.240000
v 0.000000 0.800000 -0.300000
v -1.000000 -0.500000 -0.240000
v -1.000000 -0.500000 0.240000
v 0.800000 -0.400000 0.300000
v 1.000000 -0.500000 0.240000
v 0.800000 -0.400000 -0.300000
v -0.800000 -0.400000 0.300000
v 1.000000 -0.500000 -0.240000
v -0.800000 -0.400000 -0.300000
v 1.000000 0.500000 -0.240000
v 0.800000 0.400000 0.300000
v -0.800000 0.400000 -0.300000
v -0.800000 0.400000 0.300000
v 1.000000 0.500000 0.240000
v -1.000000 0.500000 0.240000
v 0.800000 0.400000 -0.300000
v -1.000000 0.500000 -0.240000
v 0.400163 0.800000 0.300000
v 0.500204 -1.000000 0.240000
v 0.400163 -0.800000 -0.300000
v 0.500204 1.000000 -0.240000
v 0.500204 1.000000 0.240000
v 0.400163 -0.800000 0.300000
v 0.500204 -1.000000 -0.240000
v 0.400163 0.800000 -0.300000
v -0.500000 1.000000 0.240000
v -0.400000 -0.800000 0.300000
v -0.500000 -1.000000 -0.240000
v -0.400000 0.800000 -0.300000
v -0.400000 0.800000 0.300000
v -0.500000 -1.000000 0.240000
v -0.400000 -0.800000 -0.300000
v -0.500000 1.000000 -0.240000
v -1.000000 -1.028735 0.335783
v -0.800000 -0.828735 0.395783
v 0.800000 -0.828735 0.395783
v 1.000000 -1.028735 0.335783
v 0.500204 -1.028735 0.335783
v -0.400000 -0.828735 0.395783
v -0.500000 -1.028735 0.335783
v 0.000000 -1.028735 0.335783
v 0.400163 -0.828735 0.395783
v 0.000000 -0.828735 0.395783
v 0.800000 -0.828735 -0.395783
v 1.000000 -1.028735 -0.335783
v -0.500000 -1.028735 -0.335783
v -1.000000 -1.028735 -0.335783
v -0.800000 -0.828735 -0.395783
v 0.400163 -0.828735 -0.395783
v 0.500204 -1.028735 -0.335783
v 0.000000 -1.028735 -0.335783
v -0.400000 -0.828735 -0.395783
v 0.000000 -0.828735 -0.395783
v 1.028735 0.500000 -0.335783
v 1.028735 0.000000 -0.335783
v 0.828735 -0.400000 -0.395783
v 0.828735 0.000000 -0.395783
v 0.828735 -0.800000 -0.395783
v 1.028735 -1.000000 -0.335783
v 0.828735 0.800000 -0.395783
v 1.028735 1.000000 -0.335783
v 1.028735 -0.500000 -0.335783
v 0.828735 0.400000 -0.395783
v 0.800000 0.828735 -0.395783
v 1.000000 1.028735 -0.335783
v -1.000000 1.028735 -0.335783
v -0.800000 0.828735 -0.395783
v 0.500204 1.028735 -0.335783
v -0.400000 0.828735 -0.395783
v -0.500000 1.028735 -0.335783
v 0.000000 1.028735 -0.335783
v 0.400163 0.828735 -0.395783
v 0.000000 0.828735 -0.395783
v -1.028735 -0.500000 -0.335783
v -1.028735 0.000000 -0.335783
v -0.828735 0.400000 -0.395783
v -0.828735 0.000000 -0.395783
v -1.028735 -1.000000 -0.335783
v -0.828735 -0.800000 -0.395783
v -1.028735 1.000000 -0.335783
v -0.828735 0.800000 -0.395783
v -0.828735 -0.400000 -0.395783
v -1.028735 0.500000 -0.335783
v -1.028735 -1.000000 0.335783
v -0.828735 -0.800000 0.395783
v -0.828735 0.400000 0.395783
v -0.828735 0.800000 0.395783
v -1.028735 1.000000 0.335783
v -1.028735 -0.500000 0.335783
v -1.028735 0.500000 0.335783
v -1.028735 0.000000 0.335783
v -0.828735 -0.400000 0.395783
v -0.828735 0.000000 0.395783
v 0.828735 0.400000 0.395783
v 0.828735 0.000000 0.395783
v 1.028735 1.000000 0.335783
v 0.828735 0.800000 0.395783
v 0.828735 -0.400000 0.395783
v 0.828735 -0.800000 0.395783
v 1.028735 -1.000000 0.335783
v 1.028735 0.500000 0.335783
v 1.028735 -0.500000 0.335783
v 1.028735 0.000000 0.335783
v -0.800000 0.828735 0.395783
v -1.000000 1.028735 0.335783
v 1.000000 1.028735 0.335783
v 0.800000 0.828735 0.395783
v -0.500000 1.028735 0.335783
v 0.400163 0.828735 0.395783
v 0.500204 1.028735 0.335783
v 0.000000 1.028735 0.335783
v -0.400000 0.828735 0.395783
v 0.000000 0.828735 0.395783
v 0.100000 -0.100000 0.300000
v 0.100000 0.100000 0.300000
v -0.100000 0.100000 0.300000
v -0.100000 -0.100000 0.300000
v -0.100000 -0.300000 0.300000
v 0.000000 -0.500000 0.300000
v 0.100000 -0.300000 0.300000
v -0.100000 0.300000 0.300000
v 0.100000 0.300000 0.300000
v 0.000000 0.500000 0.300000
v 0.300163 -0.100000 0.300000
v 0.500163 0.000000 0.300000
v 0.300163 0.100000 0.300000
v 0.300163 -0.300000 0.300000
v 0.500163 -0.500000 0.300000
v 0.300163 0.300000 0.300000
v 0.500163 0.500000 0.300000
v -0.300000 -0.100000 0.300000
v -0.300000 0.100000 0.300000
v -0.500000 0.000000 0.300000
v -0.300000 -0.300000 0.300000
v -0.500000 -0.500000 0.300000
v -0.500000 0.500000 0.300000
v -0.300000 0.300000 0.300000
v -0.100000 -0.100000 -0.300000
v -0.100000 0.100000 -0.300000
v 0.100000 0.100000 -0.300000
v 0.100000 -0.100000 -0.300000
v 0.100000 -0.300000 -0.300000
v 0.000000 -0.500000 -0.300000
v -0.100000 -0.300000 -0.300000
v 0.100000 0.300000 -0.300000
v -0.100000 0.300000 -0.300000
v 0.000000 0.500000 -0.300000
v 0.300163 -0.100000 -0.300000
v 0.300163 0.100000 -0.300000
v 0.500163 0.000000 -0.300000
v 0.300163 -0.300000 -0.300000
v 0.500163 -0.500000 -0.300000
v 0.500163 0.500000 -0.300000
v 0.300163 0.300000 -0.300000
v -0.300000 -0.100000 -0.300000
v -0.500000 0.000000 -0.300000
v -0.300000 0.100000 -0.300000
v -0.300000 -0.300000 -0.300000
v -0.500000 -0.500000 -0.300000
v -0.300000 0.300000 -0.300000
v -0.500000 0.500000 -0.300000
vt 0.437500 0.025000
vt 0.375000 0.025000
vt 0.375000 0.025000
vt 0.437500 0.025000
vt 0.550000 0.775000
vt 0.500000 0.775000
vt 0.500000 0.775000
vt 0.550000 0.775000
vt 0.750000 0.725000
vt 0.812500 0.725000
vt 0.812500 0.725000
vt 0.750000 0.725000
vt 0.250000 0.725000
vt 0.312526 0.725000
vt 0.312526 0.725000
vt 0.250000 0.725000
vt 0.450000 0.275000
vt 0.500000 0.275000
vt 0.500000 0.312500
vt 0.437500 0.312500
vt 0.375000 0.525000
vt 0.312525 0.525000
vt 0.312525 0.525000
vt 0.375000 0.525000
vt 0.550000 0.475000
vt 0.600000 0.475000
vt 0.600000 0.475000
vt 0.550000 0.475000
vt 0.400000 0.275000
vt 0.375000 0.225000
vt 0.375000 0.225000
vt 0.400000 0.275000
vt 0.812500 0.525000
vt 0.750000 0.525000
vt 0.750000 0.525000
vt 0.812500 0.525000
vt 0.600000 0.275000
vt 0.550000 0.275000
vt 0.550000 0.275000
vt 0.600000 0.275000
vt 0.500000 0.525000
vt 0.437500 0.525000
vt 0.437500 0.525000
vt 0.500000 0.525000
vt 0.450000 0.775000
vt 0.450000 0.775000
vt 0.600000 0.975000
vt 0.625000 1.000000
vt 0.625000 1.000000
vt 0.600000 0.975000
vt 0.687474 0.525000
vt 0.687474 0.525000
vt 0.400000 0.275000
vt 0.375000 0.225000
vt 0.500000 0.437520
vt 0.562500 0.437520
vt 0.500000 0.475000
vt 0.400000 0.824980
vt 0.400000 0.875000
vt 0.400000 0.875000
vt 0.400000 0.824980
vt 0.600000 0.975000
vt 0.625000 1.000000
vt 0.500000 0.812480
vt 0.437500 0.812480
vt 0.562500 0.375000
vt 0.600000 0.375000
vt 0.600000 0.425020
vt 0.562500 0.875000
vt 0.600000 0.875000
vt 0.600000 0.925000
vt 0.562500 0.937500
vt 0.500000 0.975000
vt 0.550000 0.975000
vt 0.550000 0.975000
vt 0.500000 0.975000
vt 0.437500 0.225000
vt 0.500000 0.225000
vt 0.500000 0.225000
vt 0.437500 0.225000
vt 0.500000 0.475000
vt 0.625000 0.750000
vt 0.600000 0.775000
vt 0.600000 0.775000
vt 0.625000 0.750000
vt 0.562500 0.725000
vt 0.625000 0.725000
vt 0.625000 0.725000
vt 0.562500 0.725000
vt 0.375000 0.525000
vt 0.450000 0.275000
vt 0.437500 0.437520
vt 0.450000 0.475000
vt 0.450000 0.975000
vt 0.450000 0.975000
vt 0.437500 0.937500
vt 0.500000 0.937500
vt 0.400000 0.325000
vt 0.437500 0.375000
vt 0.400000 0.375000
vt 0.600000 0.824980
vt 0.600000 0.824980
vt 0.600000 0.875000
vt 0.400000 0.375000
vt 0.400000 0.325000
vt 0.562500 0.812480
vt 0.400000 0.425020
vt 0.875000 0.525000
vt 0.875000 0.525000
vt 0.562500 0.312500
vt 0.600000 0.325000
vt 0.125000 0.725000
vt 0.187500 0.725000
vt 0.187500 0.725000
vt 0.125000 0.725000
vt 0.437500 0.875000
vt 0.600000 0.275000
vt 0.600000 0.325000
vt 0.400000 0.925000
vt 0.250000 0.525000
vt 0.187500 0.525000
vt 0.187500 0.525000
vt 0.250000 0.525000
vt 0.875000 0.725000
vt 0.875000 0.725000
vt 0.375000 0.725000
vt 0.400000 0.775000
vt 0.400000 0.775000
vt 0.375000 0.725000
vt 0.400000 0.925000
vt 0.400000 0.975000
vt 0.375000 1.000000
vt 0.375000 1.000000
vt 0.400000 0.975000
vt 0.400000 0.475000
vt 0.400000 0.475000
vt 0.400000 0.425020
vt 0.125000 0.525000
vt 0.125000 0.525000
vt 0.625000 0.525000
vt 0.562500 0.525000
vt 0.562500 0.525000
vt 0.625000 0.525000
vt 0.400000 0.475000
vt 0.450000 0.475000
vt 0.625000 0.500000
vt 0.625000 0.500000
vt 0.600000 0.375000
vt 0.625000 0.525000
vt 0.600000 0.425020
vt 0.600000 0.475000
vt 0.625000 0.225000
vt 0.625000 0.225000
vt 0.625000 0.500000
vt 0.562500 0.225000
vt 0.625000 0.225000
vt 0.562500 0.225000
vt 0.500000 0.275000
vt 0.500000 0.025000
vt 0.500000 0.025000
vt 0.625000 0.025000
vt 0.562500 0.025000
vt 0.562500 0.025000
vt 0.625000 0.025000
vt 0.400000 0.975000
vt 0.375000 1.000000
vt 0.400000 0.775000
vt 0.437500 0.725000
vt 0.437500 0.725000
vt 0.375000 0.725000
vt 0.500000 0.725000
vt 0.500000 0.725000
vt 0.600000 0.775000
vt 0.687474 0.725000
vt 0.687474 0.725000
vt 0.625000 0.725000
vt 0.600000 0.925000
vt 0.625000 0.750000
vt 0.512500 0.837480
vt 0.512500 0.862500
vt 0.487500 0.862500
vt 0.487500 0.837480
vt 0.537500 0.887500
vt 0.512500 0.887500
vt 0.537500 0.862500
vt 0.487500 0.887500
vt 0.462500 0.887500
vt 0.462500 0.862500
vt 0.512500 0.912500
vt 0.487500 0.912500
vt 0.512500 0.337500
vt 0.512500 0.362500
vt 0.487500 0.362500
vt 0.487500 0.337500
vt 0.537500 0.387500
vt 0.512500 0.387500
vt 0.537500 0.362500
vt 0.487500 0.387500
vt 0.462500 0.387500
vt 0.462500 0.362500
vt 0.512500 0.412520
vt 0.487500 0.412520
vt 0.375000 0.812474
vt 0.375000 0.750000
vt 0.375000 0.937500
vt 0.375000 0.875000
vt 0.375000 0.312500
vt 0.375000 0.250000
vt 0.375000 0.437525
vt 0.375000 0.375000
vt 0.375000 0.500000
vt 0.625000 0.437525
vt 0.625000 0.312500
vt 0.625000 0.375000
vt 0.625000 0.250000
vt 0.562500 1.000000
vt 0.500000 1.000000
vt 0.437500 1.000000
vt 0.625000 0.937500
vt 0.625000 0.812474
vt 0.625000 0.875000
vt 0.462500 0.837480
vt 0.537500 0.837480
vt 0.462500 0.912500
vt 0.537500 0.912500
vt 0.462500 0.337500
vt 0.537500 0.337500
vt 0.462500 0.412520
vt 0.537500 0.412520
vn -0.9578 0.0000 -0.2873
vn -0.9578 0.0000 0.2873
vn 0.0000 0.9578 -0.2873
vn 0.0000 -0.9578 -0.2873
vn 0.0000 0.0000 -1.0000
vn 0.0000 -0.9578 0.2873
vn 0.6625 -0.7222 -0.1988
vn 0.0000 0.9578 0.2873
vn 0.9578 0.0000 -0.2873
vn 0.9578 0.0000 0.2873
vn 0.6625 0.7222 0.1988
vn -0.7222 0.6625 -0.1988
vn -0.7222 -0.6625 0.1988
vn 0.0000 0.0000 1.0000
vn -0.6625 0.7222 0.1988
vn 0.7222 0.6625 0.1988
vn -0.7222 0.6625 0.1988
vn 0.7222 0.6625 -0.1988
vn -0.6625 -0.7222 -0.1988
vn -0.6625 0.7222 -0.1988
vn -0.7222 -0.6625 -0.1988
vn 0.7222 -0.6625 -0.1988
vn 0.6625 0.7222 -0.1988
vn 0.6625 -0.7222 0.1988
vn -0.6625 -0.7222 0.1988
vn 0.7222 -0.6625 0.1988
vn -1.0000 0.0000 0.0000
vn 0.0000 -1.0000 0.0000
vn 1.0000 0.0000 0.0000
vn 0.0000 1.0000 0.0000
vn 0.0000 -0.2873 0.9578
vn 0.0000 -0.2873 -0.9578
vn 0.2873 0.0000 -0.9578
vn 0.0000 0.2873 -0.9578
vn -0.2873 0.0000 -0.9578
vn -0.2873 0.0000 0.9578
vn 0.2873 0.0000 0.9578
vn 0.0000 0.2873 0.9578
g Cube_Cube_Material
usemtl Material
s off
f 34/1/1 12/2/1 115/3/1 120/4/1
f 42/5/2 2/6/2 126/7/2 125/8/2
f 25/9/3 57/10/3 139/11/3 142/12/3
f 27/13/4 50/14/4 69/15/4 72/16/4
f 40/17/5 23/18/5 187/19/5 190/20/5
f 16/21/6 55/22/6 81/23/6 76/24/6
f 47/25/1 13/26/1 91/27/1 94/28/1
f 20/29/7 19/30/7 109/31/7 110/32/7
f 64/33/8 31/34/8 102/35/8 101/36/8
f 18/37/9 43/38/9 107/39/9 112/40/9
f 21/41/10 39/42/10 93/43/10 86/44/10
f 2/6/2 35/45/2 129/46/2 126/7/2
f 9/47/11 10/48/11 119/49/11 118/50/11
f 31/34/8 52/51/8 99/52/8 102/35/8
f 19/30/12 20/29/12 79/53/12 78/54/12
f 181/55/5 184/56/5 47/25/5 22/57/5
f 54/58/8 28/59/8 74/60/8 73/61/8
f 10/48/13 9/47/13 135/62/13 136/63/13
f 35/45/14 2/6/14 156/64/14 159/65/14
f 178/66/5 32/67/5 56/68/5 184/56/5
f 154/69/14 26/70/14 61/71/14 167/72/14
f 4/73/10 44/74/10 117/75/10 124/76/10
f 33/77/2 24/78/2 106/79/2 105/80/2
f 22/57/1 47/25/1 94/28/1 88/81/1
f 5/82/15 6/83/15 128/84/15 127/85/15
f 45/86/9 5/87/9 127/88/9 132/89/9
f 39/42/10 16/21/10 90/90/10 93/43/10
f 40/17/9 20/29/9 110/32/9 113/91/9
f 183/92/5 181/55/5 22/57/5 37/93/5
f 38/94/10 4/73/10 124/76/10 123/95/10
f 166/96/14 164/97/14 4/73/14 38/94/14
f 63/98/5 190/20/5 174/99/5 30/100/5
f 164/97/14 167/72/14 44/74/14 4/73/14
f 26/70/6 49/101/6 140/102/6 144/103/6
f 63/98/3 30/100/3 84/104/3 83/105/3
f 2/6/14 42/5/14 161/106/14 156/64/14
f 30/100/5 174/99/5 183/92/5 51/107/5
f 17/108/8 64/33/8 101/36/8 97/109/8
f 192/110/5 60/111/5 32/67/5 178/66/5
f 12/112/4 62/113/4 71/114/4 65/115/4
f 54/58/14 159/65/14 150/116/14 28/59/14
f 62/113/4 27/13/4 72/16/4 71/114/4
f 60/111/4 18/37/4 98/117/4 100/118/4
f 23/18/5 43/38/5 192/110/5 187/19/5
f 28/59/14 150/116/14 166/96/14 58/119/14
f 29/120/6 59/121/6 77/122/6 82/123/6
f 57/10/3 10/124/3 136/125/3 139/11/3
f 161/106/14 49/101/14 26/70/14 154/69/14
f 8/126/16 7/127/16 67/128/16 68/129/16
f 28/59/8 58/119/8 70/130/8 74/60/8
f 50/14/4 8/126/4 68/129/4 69/15/4
f 11/131/17 12/132/17 65/133/17 66/134/17
f 7/127/8 54/58/8 73/61/8 67/128/8
f 58/119/8 11/131/8 66/134/8 70/130/8
f 51/107/3 15/135/3 75/136/3 80/137/3
f 20/29/3 63/98/3 83/105/3 79/53/3
f 15/135/18 16/21/18 76/24/18 75/136/18
f 55/22/6 29/120/6 82/123/6 81/23/6
f 59/121/6 19/138/6 78/139/6 77/122/6
f 30/100/3 51/107/3 80/137/3 84/104/3
f 14/140/10 41/141/10 85/142/10 92/143/10
f 16/21/19 15/135/19 89/144/19 90/90/19
f 37/93/1 22/57/1 88/81/1 87/145/1
f 41/141/10 21/41/10 86/44/10 85/142/10
f 15/135/1 37/93/1 87/145/1 89/144/1
f 13/26/20 14/146/20 92/147/20 91/27/20
f 32/67/4 60/111/4 100/118/4 104/148/4
f 52/51/8 14/140/8 96/149/8 99/52/8
f 13/26/4 56/68/4 103/150/4 95/151/4
f 18/37/21 17/152/21 97/153/21 98/117/21
f 56/68/4 32/67/4 104/148/4 103/150/4
f 14/146/22 13/26/22 95/151/22 96/154/22
f 48/155/2 17/152/2 111/156/2 114/157/2
f 24/78/2 48/155/2 114/157/2 106/79/2
f 19/30/2 33/77/2 105/80/2 109/31/2
f 43/38/9 23/18/9 108/158/9 107/39/9
f 23/18/9 40/17/9 113/91/9 108/158/9
f 17/152/23 18/37/23 112/40/23 111/156/23
f 3/159/1 34/1/1 120/4/1 122/160/1
f 10/161/1 46/162/1 121/163/1 119/164/1
f 12/132/24 11/131/24 116/165/24 115/166/24
f 46/162/1 3/159/1 122/160/1 121/163/1
f 11/131/10 38/94/10 123/95/10 116/165/10
f 44/74/10 9/47/10 118/50/10 117/75/10
f 35/45/2 7/127/2 130/167/2 129/46/2
f 8/126/9 36/168/9 133/169/9 131/170/9
f 36/168/9 1/171/9 134/172/9 133/169/9
f 1/171/9 45/86/9 132/89/9 134/172/9
f 7/127/25 8/126/25 131/170/25 130/167/25
f 6/83/2 42/5/2 125/8/2 128/84/2
f 49/101/6 6/83/6 138/173/6 140/102/6
f 53/174/3 25/9/3 142/12/3 141/175/3
f 5/87/3 53/174/3 141/175/3 137/176/3
f 61/71/6 26/70/6 144/103/6 143/177/6
f 9/47/6 61/71/6 143/177/6 135/62/6
f 6/83/26 5/82/26 137/178/26 138/173/26
f 157/179/14 146/180/14 145/181/14 155/182/14
f 152/183/14 147/184/14 146/180/14 153/185/14
f 148/186/14 149/187/14 151/188/14 145/181/14
f 147/184/14 163/189/14 162/190/14 148/186/14
f 188/191/5 170/192/5 169/193/5 186/194/5
f 176/195/5 171/196/5 170/192/5 177/197/5
f 172/198/5 173/199/5 175/200/5 169/193/5
f 171/196/5 180/201/5 179/202/5 172/198/5
g Cube_Cube_Material.001
usemtl Material.001
f 46/162/27 10/161/27 17/152/27 48/155/27
f 55/22/28 16/21/28 8/126/28 50/14/28
f 39/42/29 21/41/29 1/171/29 36/168/29
f 64/33/30 17/108/30 10/124/30 57/10/30
f 41/141/29 14/140/29 5/87/29 45/86/29
f 51/107/5 183/92/5 37/93/5 15/135/5
f 58/119/14 166/96/14 38/94/14 11/131/14
f 34/1/27 3/159/27 24/78/27 33/77/27
f 52/51/30 31/34/30 25/9/30 53/174/30
f 59/121/28 29/120/28 27/13/28 62/113/28
f 12/2/27 34/1/27 33/77/27 19/30/27
f 167/72/14 61/71/14 9/47/14 44/74/14
f 184/56/5 56/68/5 13/26/5 47/25/5
f 16/21/29 39/42/29 36/168/29 8/126/29
f 21/41/29 41/141/29 45/86/29 1/171/29
f 3/159/27 46/162/27 48/155/27 24/78/27
f 7/127/14 35/45/14 159/65/14 54/58/14
f 42/5/14 6/83/14 49/101/14 161/106/14
f 14/140/30 52/51/30 53/174/30 5/87/30
f 29/120/28 55/22/28 50/14/28 27/13/28
f 20/29/5 40/17/5 190/20/5 63/98/5
f 43/38/5 18/37/5 60/111/5 192/110/5
f 19/138/28 59/121/28 62/113/28 12/112/28
f 31/34/30 64/33/30 57/10/30 25/9/30
f 69/203/31 68/204/31 67/128/31 73/61/31
f 71/205/31 72/206/31 74/60/31 70/130/31
f 72/206/31 69/203/31 73/61/31 74/60/31
f 65/133/31 71/205/31 70/130/31 66/134/31
f 77/207/32 78/208/32 79/53/32 83/105/32
f 81/209/32 82/210/32 84/104/32 80/137/32
f 76/211/32 81/209/32 80/137/32 75/136/32
f 82/210/32 77/207/32 83/105/32 84/104/32
f 93/43/33 90/90/33 89/144/33 87/145/33
f 85/142/33 86/44/33 88/81/33 94/28/33
f 86/44/33 93/43/33 87/145/33 88/81/33
f 92/143/33 85/142/33 94/28/33 91/27/33
f 99/212/34 96/154/34 95/151/34 103/150/34
f 101/213/34 102/214/34 104/148/34 100/118/34
f 102/214/34 99/212/34 103/150/34 104/148/34
f 97/215/34 101/213/34 100/118/34 98/117/34
f 113/91/35 110/32/35 109/31/35 105/80/35
f 107/39/35 108/158/35 106/79/35 114/157/35
f 108/158/35 113/91/35 105/80/35 106/79/35
f 112/40/35 107/39/35 114/157/35 111/156/35
f 117/75/36 118/50/36 119/49/36 121/216/36
f 123/95/36 124/76/36 122/217/36 120/218/36
f 116/165/36 123/95/36 120/218/36 115/166/36
f 124/76/36 117/75/36 121/216/36 122/217/36
f 129/46/37 130/167/37 131/170/37 133/169/37
f 125/8/37 126/7/37 134/172/37 132/89/37
f 126/7/37 129/46/37 133/169/37 134/172/37
f 128/84/37 125/8/37 132/89/37 127/88/37
f 139/219/38 136/63/38 135/62/38 143/177/38
f 141/220/38 142/221/38 144/103/38 140/102/38
f 137/178/38 141/220/38 140/102/38 138/173/38
f 142/221/38 139/219/38 143/177/38 144/103/38
f 158/222/14 151/188/14 150/116/14 159/65/14
f 161/106/14 154/69/14 153/185/14 160/223/14
f 160/223/14 157/179/14 156/64/14 161/106/14
f 155/182/14 158/222/14 159/65/14 156/64/14
f 149/187/14 165/224/14 166/96/14 150/116/14
f 154/69/14 167/72/14 168/225/14 152/183/14
f 167/72/14 164/97/14 163/189/14 168/225/14
f 164/97/14 166/96/14 165/224/14 162/190/14
f 189/226/5 175/200/5 174/99/5 190/20/5
f 192/110/5 178/66/5 177/197/5 191/227/5
f 173/199/5 182/228/5 183/92/5 174/99/5
f 178/66/5 184/56/5 185/229/5 176/195/5
f 184/56/5 181/55/5 180/201/5 185/229/5
f 181/55/5 183/92/5 182/228/5 179/202/5
f 191/227/5 188/191/5 187/19/5 192/110/5
f 186/194/5 189/226/5 190/20/5 187/19/5
g Cube_Cube_Material.002
usemtl Material.002
f 149/187/14 148/186/14 162/190/14 165/224/14
f 173/199/5 172/198/5 179/202/5 182/228/5
f 147/184/14 152/183/14 168/225/14 163/189/14
f 171/196/5 176/195/5 185/229/5 180/201/5
f 189/226/5 186/194/5 169/193/5 175/200/5
f 158/222/14 155/182/14 145/181/14 151/188/14
f 145/181/14 146/180/14 147/184/14 148/186/14
f 149/187/14 150/116/14 151/188/14
f 152/183/14 153/185/14 154/69/14
f 155/182/14 156/64/14 157/179/14
f 162/190/14 163/189/14 164/97/14
f 157/179/14 160/223/14 153/185/14 146/180/14
f 169/193/5 170/192/5 171/196/5 172/198/5
f 173/199/5 174/99/5 175/200/5
f 176/195/5 177/197/5 178/66/5
f 179/202/5 180/201/5 181/55/5
f 186/194/5 187/19/5 188/191/5
f 188/191/5 191/227/5 177/197/5 170/192/5
