# Blender 3.2.0
# www.blender.org
mtllib Pistole.mtl
o Cube
v -0.017482 0.071806 -0.253198
v -0.015704 0.071639 -0.280670
v -0.016467 0.075148 -0.253084
v -0.014996 0.073973 -0.280591
v -0.014820 0.078228 -0.252980
v -0.013678 0.076438 -0.280508
v -0.012604 0.080927 -0.252889
v -0.011753 0.078782 -0.280429
v -0.009903 0.083143 -0.252814
v -0.009301 0.080793 -0.280361
v -0.006821 0.084789 -0.252758
v -0.006436 0.082323 -0.280309
v -0.003477 0.085803 -0.252724
v -0.003290 0.083277 -0.280277
v 0.000000 0.086145 -0.252712
v 0.000000 0.083601 -0.280266
v -0.041653 -0.091464 0.068864
v -0.038098 -0.100000 0.071611
v -0.038098 -0.092419 0.073917
v -0.038098 -0.100000 -0.019853
v -0.041653 -0.091464 -0.021524
v -0.038098 -0.092419 -0.026083
v -0.038098 0.100000 -0.045732
v -0.037821 0.100024 -0.054268
v -0.041388 0.091488 -0.054256
v -0.041653 0.091464 -0.045732
v 0.038098 -0.100000 0.071611
v 0.041653 -0.091464 0.068864
v 0.038098 -0.092419 0.073917
v 0.038098 -0.100000 -0.019853
v 0.038098 -0.092419 -0.026083
v 0.041653 -0.091464 -0.021524
v 0.038098 0.100000 -0.045732
v 0.041653 0.091464 -0.045732
v 0.041388 0.091488 -0.054256
v 0.037821 0.100024 -0.054268
v -0.041653 -0.008536 0.047403
v -0.038098 -0.007581 0.051962
v -0.038098 0.008536 0.050000
v -0.041653 0.008536 0.045732
v -0.041653 -0.008536 -0.042985
v -0.041653 0.008536 -0.045732
v -0.041388 0.009270 -0.054256
v -0.037822 0.000705 -0.054253
v -0.038098 -0.007581 -0.048038
v 0.038098 -0.007581 -0.048038
v 0.037822 0.000705 -0.054253
v 0.041388 0.009270 -0.054256
v 0.041653 0.008536 -0.045732
v 0.041653 -0.008536 -0.042985
v 0.041653 -0.008536 0.047403
v 0.041653 0.008536 0.045732
v 0.038098 0.008536 0.050000
v 0.038098 -0.007581 0.051962
v -0.024553 0.101201 -0.266861
v -0.024297 0.092689 -0.271129
v -0.028118 0.092665 -0.266873
v 0.024553 0.101201 -0.266861
v 0.028118 0.092665 -0.266873
v 0.024297 0.092689 -0.271129
v -0.028118 0.044502 -0.266873
v -0.024297 0.045178 -0.271129
v -0.024552 0.035938 -0.266876
v 0.028118 0.044502 -0.266873
v 0.024552 0.035938 -0.266876
v 0.024297 0.045178 -0.271129
v -0.041653 0.043964 0.045732
v -0.038098 0.038964 0.050000
v -0.038098 0.053535 0.046982
v -0.038098 0.100000 0.019482
v -0.041653 0.091464 0.021982
v -0.038098 0.093964 0.026768
v 0.041653 0.091464 0.021982
v 0.038098 0.100000 0.019482
v 0.038098 0.093964 0.026768
v 0.041653 0.043964 0.045732
v 0.038098 0.053535 0.046982
v 0.038098 0.038964 0.050000
v -0.015912 0.069537 -0.280742
v -0.017824 0.068331 -0.253315
v -0.015704 0.067434 -0.280813
v -0.017482 0.064856 -0.253433
v -0.014996 0.065100 -0.280892
v -0.016467 0.061514 -0.253546
v -0.013678 0.062636 -0.280975
v -0.014820 0.058434 -0.253650
v -0.011753 0.060291 -0.281054
v -0.012604 0.055734 -0.253741
v -0.009301 0.058280 -0.281122
v -0.009903 0.053519 -0.253816
v -0.006436 0.056750 -0.281174
v -0.006821 0.051873 -0.253872
v -0.003290 0.055796 -0.281207
v -0.003477 0.050859 -0.253906
v 0.000000 0.055472 -0.281217
v 0.000000 0.050517 -0.253918
v 0.003290 0.055796 -0.281207
v 0.003477 0.050859 -0.253906
v 0.006436 0.056750 -0.281174
v 0.006821 0.051873 -0.253872
v 0.009301 0.058280 -0.281122
v 0.009903 0.053519 -0.253816
v 0.011753 0.060291 -0.281054
v 0.012604 0.055734 -0.253741
v 0.013678 0.062636 -0.280975
v 0.014820 0.058434 -0.253650
v 0.014996 0.065100 -0.280892
v 0.016468 0.061514 -0.253546
v 0.015704 0.067434 -0.280813
v 0.017482 0.064856 -0.253433
v 0.015912 0.069537 -0.280742
v 0.017824 0.068331 -0.253315
v 0.015704 0.071639 -0.280670
v 0.017482 0.071806 -0.253198
v 0.014996 0.073973 -0.280591
v 0.016468 0.075148 -0.253084
v 0.013678 0.076438 -0.280508
v 0.014820 0.078228 -0.252980
v 0.011753 0.078782 -0.280429
v 0.012604 0.080927 -0.252889
v 0.009301 0.080793 -0.280361
v 0.009903 0.083143 -0.252814
v 0.006436 0.082323 -0.280309
v 0.006821 0.084789 -0.252758
v 0.003290 0.083277 -0.280277
v 0.003477 0.085803 -0.252724
v -0.009903 0.084348 -0.280240
v -0.012604 0.082133 -0.280315
v -0.014820 0.079434 -0.280407
v -0.016467 0.076354 -0.280511
v -0.006821 0.085995 -0.280185
v -0.003477 0.087008 -0.280150
v 0.000000 0.087351 -0.280139
v -0.017482 0.073012 -0.280624
v -0.017824 0.069537 -0.280742
v -0.017482 0.066061 -0.280859
v -0.016467 0.062719 -0.280972
v -0.014820 0.059640 -0.281076
v -0.012604 0.056940 -0.281168
v -0.009903 0.054725 -0.281243
v -0.006821 0.053079 -0.281298
v -0.003477 0.052065 -0.281333
v 0.000000 0.051723 -0.281344
v 0.003477 0.052065 -0.281333
v 0.006821 0.053079 -0.281298
v 0.009903 0.054725 -0.281243
v 0.012604 0.056940 -0.281168
v 0.014820 0.059640 -0.281076
v 0.016468 0.062719 -0.280972
v 0.017482 0.066061 -0.280859
v 0.017824 0.069537 -0.280742
v 0.017482 0.073012 -0.280624
v 0.016468 0.076354 -0.280511
v 0.014820 0.079434 -0.280407
v 0.012604 0.082133 -0.280315
v 0.009903 0.084348 -0.280240
v 0.006821 0.085995 -0.280185
v 0.003477 0.087008 -0.280150
vn 1.0000 -0.0000 -0.0000
vn -0.0000 -0.0000 -1.0000
vn -0.9981 -0.0000 -0.0623
vn -0.0000 0.2505 0.9681
vn -0.0000 -0.0000 1.0000
vn -0.0000 -0.2505 -0.9681
vn 0.9981 -0.0000 -0.0623
vn -0.0000 1.0000 0.0055
vn -0.0000 -1.0000 -0.0000
vn -0.0000 0.4472 0.8944
vn -1.0000 -0.0000 -0.0000
vn -0.0000 1.0000 -0.0000
vn -0.0000 -0.9865 -0.1635
vn -0.8210 -0.1662 0.5463
vn -0.7577 -0.4143 -0.5042
vn -0.9226 0.3848 -0.0282
vn 0.8210 -0.1662 0.5463
vn 0.7577 -0.4143 -0.5042
vn 0.9226 0.3848 -0.0282
vn -0.7805 0.0680 0.6214
vn -0.9206 -0.2056 -0.3319
vn 0.9206 -0.2056 -0.3319
vn 0.7805 0.0680 0.6214
vn -0.7111 0.2979 -0.6368
vn 0.7111 0.2979 -0.6368
vn -0.6897 -0.2869 -0.6648
vn 0.6897 -0.2869 -0.6648
vn -0.6649 0.1515 0.7314
vn -0.8138 0.4476 0.3708
vn 0.8138 0.4476 0.3708
vn 0.6649 0.1515 0.7314
vn -0.9231 -0.3845 -0.0000
vn -0.7945 -0.1521 -0.5878
vn -0.0000 -0.6349 -0.7726
vn -0.0000 1.0000 0.0028
vn 0.7945 -0.1521 -0.5878
vn 0.9231 -0.3845 -0.0000
vn 0.7945 0.1521 0.5878
vn -0.0000 -0.2910 0.9567
vn -0.7945 0.1521 0.5878
vn -0.9995 -0.0000 -0.0311
vn 0.9995 -0.0000 -0.0311
vn -0.0000 0.1208 0.9927
vn -0.0000 -0.6001 -0.7999
vn -0.0000 0.4482 -0.8939
vn -0.7441 -0.0000 -0.6681
vn 0.7441 -0.0000 -0.6681
vn -0.0000 -0.4181 -0.9084
vn -0.9165 -0.3815 -0.1204
vn 0.9165 -0.3815 -0.1204
vn 0.9213 0.3848 -0.0554
vn -0.9213 0.3848 -0.0554
vn 0.8351 0.2460 0.4920
vn -0.0000 0.7701 0.6380
vn -0.8351 0.2460 0.4920
vn -0.0000 0.2028 0.9792
vn 0.7683 -0.0000 0.6401
vn -0.7683 -0.0000 0.6401
vn -0.9231 0.3845 -0.0000
vn 0.9231 0.3845 -0.0000
vn 0.0980 -0.9942 -0.0437
vn 0.2903 -0.9560 -0.0420
vn 0.4714 -0.8811 -0.0387
vn 0.6344 -0.7723 -0.0339
vn 0.7730 -0.6338 -0.0279
vn 0.8819 -0.4710 -0.0207
vn 0.9569 -0.2900 -0.0127
vn 0.9952 -0.0979 -0.0043
vn 0.9952 0.0979 0.0043
vn 0.9569 0.2900 0.0127
vn 0.8819 0.4710 0.0207
vn 0.7730 0.6338 0.0279
vn 0.6344 0.7723 0.0339
vn 0.4714 0.8811 0.0387
vn 0.2903 0.9560 0.0420
vn 0.0980 0.9942 0.0437
vn -0.0980 0.9942 0.0437
vn -0.2903 0.9560 0.0420
vn -0.4714 0.8811 0.0387
vn -0.6344 0.7723 0.0339
vn -0.7730 0.6338 0.0279
vn -0.8819 0.4710 0.0207
vn -0.9569 0.2900 0.0127
vn -0.9952 0.0979 0.0043
vn -0.9952 -0.0979 -0.0043
vn -0.9569 -0.2900 -0.0127
vn -0.8819 -0.4710 -0.0207
vn -0.7730 -0.6338 -0.0279
vn -0.6344 -0.7723 -0.0339
vn -0.4714 -0.8811 -0.0387
vn -0.0000 0.0338 -0.9994
vn -0.2903 -0.9560 -0.0420
vn -0.0980 -0.9942 -0.0437
vn -0.0000 -0.0338 0.9994
vt 0.781250 1.000000
vt 0.485388 0.296822
vt 0.961457 0.278324
vt 0.812500 1.000000
vt 0.471731 0.341844
vt 0.951917 0.309772
vt 0.843750 1.000000
vt 0.449553 0.383337
vt 0.934170 0.342973
vt 0.875000 1.000000
vt 0.419706 0.419706
vt 0.908249 0.374559
vt 0.906250 1.000000
vt 0.383337 0.449553
vt 0.875233 0.401655
vt 0.937500 1.000000
vt 0.341844 0.471731
vt 0.836663 0.422271
vt 0.968750 1.000000
vt 0.296822 0.485388
vt 0.794295 0.435123
vt 1.000000 1.000000
vt 0.250000 0.490000
vt 0.000000 1.000000
vt 0.750000 0.439486
vt 0.125000 0.732463
vt 0.385670 0.012014
vt 0.135670 0.739330
vt 0.384476 0.989330
vt 0.135670 0.745095
vt 0.135670 0.750000
vt 0.384476 0.000000
vt 0.135670 0.510670
vt 0.125000 0.506492
vt 0.385670 0.237986
vt 0.384476 0.260670
vt 0.135670 0.500000
vt 0.864330 0.510670
vt 0.625000 0.239330
vt 0.863916 0.500000
vt 0.625000 0.250000
vt 0.614359 0.250000
vt 0.614075 0.250000
vt 0.614330 0.239330
vt 0.364330 0.739330
vt 0.375000 0.732463
vt 0.385670 0.737986
vt 0.364330 0.745095
vt 0.384476 0.760670
vt 0.364330 0.750000
vt 0.364330 0.510670
vt 0.364330 0.500000
vt 0.384476 0.489330
vt 0.375000 0.506492
vt 0.385670 0.512015
vt 0.635670 0.510670
vt 0.614330 0.510670
vt 0.614075 0.500000
vt 0.636084 0.500000
vt 0.489330 0.012015
vt 0.490524 0.000000
vt 0.490524 0.989330
vt 0.500000 0.000000
vt 0.510670 0.989330
vt 0.500000 0.010670
vt 0.510670 0.010670
vt 0.510670 1.000000
vt 0.489330 0.237985
vt 0.510670 0.239330
vt 0.510936 0.250000
vt 0.500000 0.261083
vt 0.490524 0.260670
vt 0.490524 0.489330
vt 0.500000 0.488917
vt 0.510936 0.500000
vt 0.510670 0.510670
vt 0.489330 0.512015
vt 0.489330 0.737986
vt 0.510670 0.739330
vt 0.510670 0.760670
vt 0.490524 0.760670
vt 0.859650 0.500000
vt 0.625000 0.264806
vt 0.625000 0.250000
vt 0.608479 0.250000
vt 0.608479 0.265957
vt 0.608868 0.250000
vt 0.624997 0.500000
vt 0.625000 0.485194
vt 0.640350 0.500000
vt 0.608868 0.500000
vt 0.608479 0.500000
vt 0.608478 0.484043
vt 0.516146 0.250000
vt 0.516521 0.265957
vt 0.500000 0.265352
vt 0.516146 0.500000
vt 0.500000 0.484648
vt 0.516521 0.484043
vt 0.554955 0.010670
vt 0.554955 1.000000
vt 0.548705 0.989330
vt 0.559374 0.989330
vt 0.566919 0.007545
vt 0.566919 0.989330
vt 0.864330 0.673705
vt 0.625000 0.989330
vt 0.625000 0.076296
vt 0.614330 0.070045
vt 0.617455 0.989330
vt 0.617455 0.058081
vt 0.614330 0.679955
vt 0.625000 0.673705
vt 0.625000 0.760670
vt 0.635670 0.673705
vt 0.617455 0.691919
vt 0.617455 0.760670
vt 0.554955 0.750000
vt 0.554955 0.739330
vt 0.559374 0.760670
vt 0.566919 0.742455
vt 0.566919 0.760670
vt 0.548704 0.760670
vt 0.964246 0.250000
vt 0.750000 1.000000
vt 0.490000 0.250000
vt 0.961456 0.221676
vt 0.718750 1.000000
vt 0.485388 0.203178
vt 0.951917 0.190228
vt 0.687500 1.000000
vt 0.471731 0.158156
vt 0.934170 0.157027
vt 0.656250 1.000000
vt 0.449553 0.116663
vt 0.908249 0.125441
vt 0.625000 1.000000
vt 0.419706 0.080294
vt 0.875233 0.098345
vt 0.593750 1.000000
vt 0.383337 0.050447
vt 0.836663 0.077729
vt 0.562500 1.000000
vt 0.341844 0.028269
vt 0.794295 0.064877
vt 0.531250 1.000000
vt 0.296822 0.014612
vt 0.750000 0.060514
vt 0.500000 1.000000
vt 0.250000 0.010000
vt 0.705705 0.064877
vt 0.468750 1.000000
vt 0.203178 0.014612
vt 0.663337 0.077729
vt 0.437500 1.000000
vt 0.158156 0.028269
vt 0.624767 0.098345
vt 0.406250 1.000000
vt 0.116663 0.050447
vt 0.591751 0.125441
vt 0.375000 1.000000
vt 0.080294 0.080294
vt 0.565830 0.157026
vt 0.343750 1.000000
vt 0.050447 0.116663
vt 0.548083 0.190227
vt 0.312500 1.000000
vt 0.028269 0.158156
vt 0.538543 0.221676
vt 0.281250 1.000000
vt 0.014612 0.203178
vt 0.535754 0.250000
vt 0.250000 1.000000
vt 0.010000 0.250000
vt 0.538543 0.278324
vt 0.218750 1.000000
vt 0.014612 0.296822
vt 0.548083 0.309772
vt 0.187500 1.000000
vt 0.028269 0.341844
vt 0.565830 0.342973
vt 0.156250 1.000000
vt 0.050447 0.383337
vt 0.591751 0.374559
vt 0.125000 1.000000
vt 0.080294 0.419706
vt 0.624767 0.401655
vt 0.093750 1.000000
vt 0.116663 0.449553
vt 0.663337 0.422271
vt 0.158156 0.471731
vt 0.062500 1.000000
vt 0.705705 0.435123
vt 0.203178 0.485388
vt 0.031250 1.000000
vt 0.906250 0.500000
vt 0.883337 0.449553
vt 0.875000 0.500000
vt 0.919706 0.419706
vt 0.843750 0.500000
vt 0.949553 0.383337
vt 0.812500 0.500000
vt 0.971731 0.341844
vt 0.937500 0.500000
vt 0.841844 0.471731
vt 0.968750 0.500000
vt 0.796822 0.485388
vt 1.000000 0.500000
vt 0.000000 0.500000
vt 0.750000 0.490000
vt 0.781250 0.500000
vt 0.985388 0.296822
vt 0.750000 0.500000
vt 0.990000 0.250000
vt 0.718750 0.500000
vt 0.985388 0.203178
vt 0.687500 0.500000
vt 0.971731 0.158156
vt 0.656250 0.500000
vt 0.949553 0.116663
vt 0.625000 0.500000
vt 0.919706 0.080294
vt 0.593750 0.500000
vt 0.883337 0.050447
vt 0.562500 0.500000
vt 0.841844 0.028269
vt 0.531250 0.500000
vt 0.796822 0.014612
vt 0.500000 0.500000
vt 0.750000 0.010000
vt 0.468750 0.500000
vt 0.703178 0.014612
vt 0.437500 0.500000
vt 0.658156 0.028269
vt 0.406250 0.500000
vt 0.616663 0.050447
vt 0.375000 0.500000
vt 0.580294 0.080294
vt 0.343750 0.500000
vt 0.550447 0.116663
vt 0.312500 0.500000
vt 0.528269 0.158156
vt 0.281250 0.500000
vt 0.514612 0.203178
vt 0.250000 0.500000
vt 0.510000 0.250000
vt 0.218750 0.500000
vt 0.514612 0.296822
vt 0.187500 0.500000
vt 0.528269 0.341844
vt 0.156250 0.500000
vt 0.550447 0.383337
vt 0.125000 0.500000
vt 0.580294 0.419706
vt 0.093750 0.500000
vt 0.616663 0.449553
vt 0.062500 0.500000
vt 0.658156 0.471731
vt 0.031250 0.500000
vt 0.703178 0.485388
s 0
usemtl Pistole
f 32/55/1 50/77/1 51/78/1 28/47/1
f 62/95/2 56/86/2 60/93/2 66/99/2
f 43/70/3 25/43/3 57/87/3 61/94/3
f 29/49/4 54/81/4 38/62/4 19/29/4
f 53/80/5 78/123/5 68/102/5 39/64/5
f 22/36/6 45/72/6 46/73/6 31/53/6
f 35/58/7 48/75/7 64/97/7 59/91/7
f 24/40/8 36/59/8 58/90/8 55/82/8
f 20/33/9 30/51/9 27/45/9 18/28/9
f 75/117/10 72/110/10 69/105/10 77/122/10
f 40/66/11 67/100/11 71/109/11 26/44/11 42/69/11
f 49/76/1 34/57/1 73/112/1 76/119/1 52/79/1
f 33/56/12 23/38/12 70/106/12 74/115/12
f 47/74/13 44/71/13 63/96/13 65/98/13
f 17/26/14 18/28/14 19/30/14
f 20/33/15 21/34/15 22/37/15
f 23/39/16 24/41/16 25/42/16 26/44/16
f 27/45/17 28/46/17 29/48/17
f 30/51/18 31/52/18 32/54/18
f 33/56/19 34/57/19 35/58/19 36/59/19
f 37/60/20 38/61/20 39/63/20 40/65/20
f 41/68/21 42/69/21 43/70/21 44/71/21 45/72/21
f 46/73/22 47/74/22 48/75/22 49/76/22 50/77/22
f 51/78/23 52/79/23 53/80/23 54/81/23
f 55/84/24 56/85/24 57/87/24
f 58/88/25 59/91/25 60/92/25
f 61/94/26 62/95/26 63/96/26
f 64/97/27 65/98/27 66/99/27
f 67/101/28 68/102/28 69/103/28
f 70/108/29 71/109/29 72/111/29
f 73/112/30 74/113/30 75/116/30
f 76/118/31 77/120/31 78/123/31
f 20/33/32 18/28/32 17/26/32 21/34/32
f 45/72/33 22/36/33 21/35/33 41/68/33
f 30/51/34 20/33/34 22/37/34 31/52/34
f 23/38/35 33/56/35 36/59/35 24/40/35
f 50/77/36 32/55/36 31/53/36 46/73/36
f 27/45/37 30/51/37 32/55/37 28/47/37
f 54/81/38 29/49/38 28/47/38 51/78/38
f 18/28/39 27/45/39 29/50/39 19/31/39
f 19/32/40 38/61/40 37/60/40 17/27/40
f 25/43/41 43/70/41 42/69/41 26/44/41
f 34/57/42 49/76/42 48/75/42 35/58/42
f 53/80/43 39/64/43 38/62/43 54/81/43
f 49/76/1 52/79/1 51/78/1 50/77/1
f 44/71/44 47/74/44 46/73/44 45/72/44
f 40/66/11 42/69/11 41/68/11 37/60/11
f 55/83/45 58/89/45 60/93/45 56/86/45
f 56/86/46 62/95/46 61/94/46 57/87/46
f 59/91/47 64/97/47 66/99/47 60/93/47
f 62/95/48 66/99/48 65/98/48 63/96/48
f 43/70/49 61/94/49 63/96/49 44/71/49
f 64/97/50 48/75/50 47/74/50 65/98/50
f 35/58/51 59/91/51 58/90/51 36/59/51
f 57/87/52 25/43/52 24/41/52 55/84/52
f 76/119/53 73/112/53 75/116/53 77/121/53
f 74/114/54 70/107/54 72/110/54 75/117/54
f 71/109/55 67/100/55 69/104/55 72/111/55
f 68/102/56 78/123/56 77/122/56 69/105/56
f 52/79/57 76/119/57 78/123/57 53/80/57
f 67/101/58 40/67/58 39/64/58 68/102/58
f 70/108/59 23/39/59 26/44/59 71/109/59
f 73/112/60 34/57/60 33/56/60 74/115/60
f 17/27/11 37/60/11 41/68/11 21/35/11
f 133/208/61 15/22/61 13/19/61 132/206/61
f 132/206/62 13/19/62 11/16/62 131/204/62
f 131/204/63 11/16/63 9/13/63 127/196/63
f 127/196/64 9/13/64 7/10/64 128/198/64
f 128/198/65 7/10/65 5/7/65 129/200/65
f 129/200/66 5/7/66 3/4/66 130/202/66
f 130/202/67 3/4/67 1/1/67 134/211/67
f 134/211/68 1/1/68 80/125/68 135/213/68
f 135/213/69 80/125/69 82/128/69 136/215/69
f 136/215/70 82/128/70 84/131/70 137/217/70
f 137/217/71 84/131/71 86/134/71 138/219/71
f 138/219/72 86/134/72 88/137/72 139/221/72
f 139/221/73 88/137/73 90/140/73 140/223/73
f 140/223/74 90/140/74 92/143/74 141/225/74
f 141/225/75 92/143/75 94/146/75 142/227/75
f 142/227/76 94/146/76 96/149/76 143/229/76
f 143/229/77 96/149/77 98/152/77 144/231/77
f 144/231/78 98/152/78 100/155/78 145/233/78
f 145/233/79 100/155/79 102/158/79 146/235/79
f 146/235/80 102/158/80 104/161/80 147/237/80
f 147/237/81 104/161/81 106/164/81 148/239/81
f 148/239/82 106/164/82 108/167/82 149/241/82
f 149/241/83 108/167/83 110/170/83 150/243/83
f 150/243/84 110/170/84 112/173/84 151/245/84
f 151/245/85 112/173/85 114/176/85 152/247/85
f 152/247/86 114/176/86 116/179/86 153/249/86
f 153/249/87 116/179/87 118/182/87 154/251/87
f 154/251/88 118/182/88 120/185/88 155/253/88
f 155/253/89 120/185/89 122/188/89 156/255/89
f 156/255/90 122/188/90 124/192/90 157/257/90
f 13/20/91 15/23/91 126/194/91 124/191/91 122/189/91 120/186/91 118/183/91 116/180/91 114/177/91 112/174/91 110/171/91 108/168/91 106/165/91 104/162/91 102/159/91 100/156/91 98/153/91 96/150/91 94/147/91 92/144/91 90/141/91 88/138/91 86/135/91 84/132/91 82/129/91 80/126/91 1/2/91 3/5/91 5/8/91 7/11/91 9/14/91 11/17/91
f 157/257/92 124/192/92 126/195/92 158/259/92
f 158/259/93 126/195/93 15/24/93 133/209/93
f 8/12/94 10/15/94 127/197/94 128/199/94
f 4/6/94 6/9/94 129/201/94 130/203/94
f 6/9/94 8/12/94 128/199/94 129/201/94
f 10/15/94 12/18/94 131/205/94 127/197/94
f 12/18/94 14/21/94 132/207/94 131/205/94
f 14/21/94 16/25/94 133/210/94 132/207/94
f 2/3/94 4/6/94 130/203/94 134/212/94
f 79/124/94 2/3/94 134/212/94 135/214/94
f 81/127/94 79/124/94 135/214/94 136/216/94
f 83/130/94 81/127/94 136/216/94 137/218/94
f 85/133/94 83/130/94 137/218/94 138/220/94
f 87/136/94 85/133/94 138/220/94 139/222/94
f 89/139/94 87/136/94 139/222/94 140/224/94
f 91/142/94 89/139/94 140/224/94 141/226/94
f 93/145/94 91/142/94 141/226/94 142/228/94
f 95/148/94 93/145/94 142/228/94 143/230/94
f 97/151/94 95/148/94 143/230/94 144/232/94
f 99/154/94 97/151/94 144/232/94 145/234/94
f 101/157/94 99/154/94 145/234/94 146/236/94
f 103/160/94 101/157/94 146/236/94 147/238/94
f 105/163/94 103/160/94 147/238/94 148/240/94
f 107/166/94 105/163/94 148/240/94 149/242/94
f 109/169/94 107/166/94 149/242/94 150/244/94
f 111/172/94 109/169/94 150/244/94 151/246/94
f 113/175/94 111/172/94 151/246/94 152/248/94
f 115/178/94 113/175/94 152/248/94 153/250/94
f 117/181/94 115/178/94 153/250/94 154/252/94
f 119/184/94 117/181/94 154/252/94 155/254/94
f 121/187/94 119/184/94 155/254/94 156/256/94
f 123/190/94 121/187/94 156/256/94 157/258/94
f 125/193/94 123/190/94 157/258/94 158/260/94
f 16/25/94 125/193/94 158/260/94 133/210/94
